<svg id="Layer_1" data-name="Layer 1" xmlns="http://www.w3.org/2000/svg" viewBox="0 0 54.19 54"><defs><style>.cls-1{fill:#73bfbb;}.cls-2{fill:#fedb7a;}</style></defs><rect class="cls-1" width="54.19" height="54"/><path class="cls-2" d="M17.78,41.13H28.64V12.87H17.78ZM19.85,15.3h3.09v3.09H19.85Z" transform="translate(0)"/><rect class="cls-2" x="33.18" y="12.87" width="3" height="28.26"/><circle class="cls-2" cx="17.78" cy="23.86" r="4.05"/><path class="cls-1" d="M18.46,25.31a.68.68,0,0,0-.16-.48,1.34,1.34,0,0,0-.53-.33c-.26-.11-.49-.21-.71-.32a2.21,2.21,0,0,1-.55-.37,1.33,1.33,0,0,1-.36-.49,1.48,1.48,0,0,1-.13-.67,1.41,1.41,0,0,1,.45-1.08,1.55,1.55,0,0,1,1.08-.5v-.83h.72v.84a1.78,1.78,0,0,1,1.13.59,1.83,1.83,0,0,1,.4,1.22H18.48a1.09,1.09,0,0,0-.15-.62.51.51,0,0,0-.45-.22.54.54,0,0,0-.4.16.69.69,0,0,0-.14.45.67.67,0,0,0,.16.46,1.67,1.67,0,0,0,.53.32l.69.32a2.54,2.54,0,0,1,.55.38,1.48,1.48,0,0,1,.37.49,1.56,1.56,0,0,1,.13.68,1.49,1.49,0,0,1-.42,1.09,1.85,1.85,0,0,1-1.15.49v.78h-.63v-.79a2,2,0,0,1-1.3-.58,1.86,1.86,0,0,1-.46-1.3h1.32a1,1,0,0,0,.2.68.69.69,0,0,0,.56.23.53.53,0,0,0,.41-.16A.58.58,0,0,0,18.46,25.31Z" transform="translate(0)"/><circle class="cls-2" cx="35.21" cy="30.77" r="4.05"/><path class="cls-1" d="M36.77,28.82H36a1.62,1.62,0,0,1,.23.65H37l-.2.77h-.58a1.54,1.54,0,0,1-.47.93,2.26,2.26,0,0,1-1.08.48l1.71,2v0H35.06l-1.89-2.21v-.69h.93a.85.85,0,0,0,.91-.58H33.07l.2-.77H35a.81.81,0,0,0-.84-.48H33.07L33.3,28H37Z" transform="translate(0)"/></svg>